<svg preserveAspectRatio="none" width="100%" height="100%" overflow="visible" style="display: block;" viewBox="0 0 19 19" fill="none" xmlns="http://www.w3.org/2000/svg">
<g id="Play" clip-path="url(#clip0_2001_168)">
<g id="Vector">
</g>
<path id="Vector_2" d="M5.34375 2.95984V16.0402C5.34569 16.1445 5.37511 16.2466 5.42906 16.3359C5.483 16.4253 5.55956 16.4989 5.65101 16.5492C5.74246 16.5996 5.84557 16.625 5.94995 16.6227C6.05432 16.6205 6.15627 16.5909 6.24551 16.5367L16.9389 9.99652C17.0244 9.94482 17.095 9.87196 17.144 9.78498C17.193 9.698 17.2188 9.59984 17.2188 9.5C17.2188 9.40015 17.193 9.302 17.144 9.21502C17.095 9.12804 17.0244 9.05518 16.9389 9.00348L6.24551 2.46332C6.15627 2.40915 6.05432 2.37946 5.94995 2.37725C5.84557 2.37505 5.74246 2.4004 5.65101 2.45075C5.55956 2.50111 5.483 2.57468 5.42906 2.66406C5.37511 2.75344 5.34569 2.85546 5.34375 2.95984Z" stroke="var(--stroke-0, white)" stroke-linecap="round" stroke-linejoin="round"/>
</g>
<defs>
<clipPath id="clip0_2001_168">
<rect width="19" height="19" fill="white"/>
</clipPath>
</defs>
</svg>
