<svg width="50" height="50" viewBox="0 0 50 50" fill="none" xmlns="http://www.w3.org/2000/svg">
<g clip-path="url(#clip0_2001_42)">
<path d="M44.8594 43.3123H40.2188V6.18726H41.7656C42.1759 6.18726 42.5693 6.02428 42.8594 5.73419C43.1495 5.44409 43.3125 5.05064 43.3125 4.64038C43.3125 4.23012 43.1495 3.83667 42.8594 3.54657C42.5693 3.25648 42.1759 3.09351 41.7656 3.09351H7.73438C7.32412 3.09351 6.93066 3.25648 6.64057 3.54657C6.35047 3.83667 6.1875 4.23012 6.1875 4.64038C6.1875 5.05064 6.35047 5.44409 6.64057 5.73419C6.93066 6.02428 7.32412 6.18726 7.73438 6.18726H9.28125V43.3123H4.64062C4.23037 43.3123 3.83691 43.4752 3.54682 43.7653C3.25672 44.0554 3.09375 44.4489 3.09375 44.8591C3.09375 45.2694 3.25672 45.6628 3.54682 45.9529C3.83691 46.243 4.23037 46.406 4.64062 46.406H44.8594C45.2696 46.406 45.6631 46.243 45.9532 45.9529C46.2433 45.6628 46.4062 45.2694 46.4062 44.8591C46.4062 44.4489 46.2433 44.0554 45.9532 43.7653C45.6631 43.4752 45.2696 43.3123 44.8594 43.3123ZM17.0156 10.8279H21.6562C22.0665 10.8279 22.46 10.9909 22.7501 11.281C23.0402 11.571 23.2031 11.9645 23.2031 12.3748C23.2031 12.785 23.0402 13.1785 22.7501 13.4686C22.46 13.7587 22.0665 13.9216 21.6562 13.9216H17.0156C16.6054 13.9216 16.2119 13.7587 15.9218 13.4686C15.6317 13.1785 15.4688 12.785 15.4688 12.3748C15.4688 11.9645 15.6317 11.571 15.9218 11.281C16.2119 10.9909 16.6054 10.8279 17.0156 10.8279ZM17.0156 18.5623H21.6562C22.0665 18.5623 22.46 18.7252 22.7501 19.0153C23.0402 19.3054 23.2031 19.6989 23.2031 20.1091C23.2031 20.5194 23.0402 20.9128 22.7501 21.2029C22.46 21.493 22.0665 21.656 21.6562 21.656H17.0156C16.6054 21.656 16.2119 21.493 15.9218 21.2029C15.6317 20.9128 15.4688 20.5194 15.4688 20.1091C15.4688 19.6989 15.6317 19.3054 15.9218 19.0153C16.2119 18.7252 16.6054 18.5623 17.0156 18.5623ZM15.4688 27.8435C15.4688 27.4332 15.6317 27.0398 15.9218 26.7497C16.2119 26.4596 16.6054 26.2966 17.0156 26.2966H21.6562C22.0665 26.2966 22.46 26.4596 22.7501 26.7497C23.0402 27.0398 23.2031 27.4332 23.2031 27.8435C23.2031 28.2538 23.0402 28.6472 22.7501 28.9373C22.46 29.2274 22.0665 29.3904 21.6562 29.3904H17.0156C16.6054 29.3904 16.2119 29.2274 15.9218 28.9373C15.6317 28.6472 15.4688 28.2538 15.4688 27.8435ZM29.3906 43.3123H20.1094V35.5779H29.3906V43.3123ZM32.4844 29.3904H27.8438C27.4335 29.3904 27.04 29.2274 26.7499 28.9373C26.4598 28.6472 26.2969 28.2538 26.2969 27.8435C26.2969 27.4332 26.4598 27.0398 26.7499 26.7497C27.04 26.4596 27.4335 26.2966 27.8438 26.2966H32.4844C32.8946 26.2966 33.2881 26.4596 33.5782 26.7497C33.8683 27.0398 34.0312 27.4332 34.0312 27.8435C34.0312 28.2538 33.8683 28.6472 33.5782 28.9373C33.2881 29.2274 32.8946 29.3904 32.4844 29.3904ZM32.4844 21.656H27.8438C27.4335 21.656 27.04 21.493 26.7499 21.2029C26.4598 20.9128 26.2969 20.5194 26.2969 20.1091C26.2969 19.6989 26.4598 19.3054 26.7499 19.0153C27.04 18.7252 27.4335 18.5623 27.8438 18.5623H32.4844C32.8946 18.5623 33.2881 18.7252 33.5782 19.0153C33.8683 19.3054 34.0312 19.6989 34.0312 20.1091C34.0312 20.5194 33.8683 20.9128 33.5782 21.2029C33.2881 21.493 32.8946 21.656 32.4844 21.656ZM32.4844 13.9216H27.8438C27.4335 13.9216 27.04 13.7587 26.7499 13.4686C26.4598 13.1785 26.2969 12.785 26.2969 12.3748C26.2969 11.9645 26.4598 11.571 26.7499 11.281C27.04 10.9909 27.4335 10.8279 27.8438 10.8279H32.4844C32.8946 10.8279 33.2881 10.9909 33.5782 11.281C33.8683 11.571 34.0312 11.9645 34.0312 12.3748C34.0312 12.785 33.8683 13.1785 33.5782 13.4686C33.2881 13.7587 32.8946 13.9216 32.4844 13.9216Z" fill="white"/>
</g>
<defs>
<clipPath id="clip0_2001_42">
<rect width="49.5" height="49.5" fill="white"/>
</clipPath>
</defs>
</svg>
