<svg width="49" height="49" viewBox="0 0 49 49" fill="none" xmlns="http://www.w3.org/2000/svg">
<path d="M45.8858 39.8125H42.8749V18.375C42.8749 17.5628 42.5523 16.7838 41.978 16.2095C41.4036 15.6351 40.6247 15.3125 39.8124 15.3125H31.3906C31.1875 15.3125 30.9928 15.3931 30.8492 15.5367C30.7056 15.6803 30.6249 15.8751 30.6249 16.0781V39.8125H27.5624V6.20346C27.5675 5.72644 27.464 5.25452 27.2597 4.82342C27.0554 4.39232 26.7558 4.01334 26.3834 3.71518C25.8758 3.31942 25.2564 3.09366 24.6132 3.06995C23.97 3.04624 23.3356 3.2258 22.8003 3.58311L7.48776 13.7812C7.0677 14.0615 6.72346 14.4413 6.48568 14.8868C6.24791 15.3323 6.12399 15.8296 6.12495 16.3346V39.8125H3.11413C2.71842 39.8066 2.33519 39.9509 2.04151 40.2161C1.74783 40.4814 1.5655 40.848 1.5312 41.2423C1.51729 41.4517 1.5466 41.6618 1.6173 41.8595C1.688 42.0571 1.79858 42.2381 1.94218 42.3912C2.08578 42.5444 2.25933 42.6663 2.45205 42.7495C2.64476 42.8327 2.85253 42.8754 3.06245 42.875H45.9374C46.1474 42.8754 46.3551 42.8327 46.5478 42.7495C46.7406 42.6663 46.9141 42.5444 47.0577 42.3912C47.2013 42.2381 47.3119 42.0571 47.3826 41.8595C47.4533 41.6618 47.4826 41.4517 47.4687 41.2423C47.4344 40.848 47.2521 40.4814 46.9584 40.2161C46.6647 39.9509 46.2815 39.8066 45.8858 39.8125ZM14.5468 35.2187C14.5473 35.4286 14.5046 35.6364 14.4214 35.8291C14.3381 36.0219 14.2162 36.1954 14.0631 36.339C13.91 36.4826 13.729 36.5932 13.5313 36.6639C13.3337 36.7346 13.1236 36.7639 12.9141 36.75C12.5195 36.7157 12.1526 36.5331 11.8873 36.239C11.622 35.9449 11.478 35.5612 11.4843 35.1651V32.2079C11.4789 31.8123 11.6233 31.4293 11.8885 31.1358C12.1537 30.8422 12.52 30.6597 12.9141 30.625C13.1236 30.6111 13.3337 30.6404 13.5313 30.7111C13.729 30.7818 13.91 30.8924 14.0631 31.036C14.2162 31.1796 14.3381 31.3531 14.4214 31.5458C14.5046 31.7386 14.5473 31.9463 14.5468 32.1562V35.2187ZM14.5468 24.5C14.5473 24.7099 14.5046 24.9177 14.4214 25.1104C14.3381 25.3031 14.2162 25.4767 14.0631 25.6203C13.91 25.7639 13.729 25.8744 13.5313 25.9451C13.3337 26.0158 13.1236 26.0451 12.9141 26.0312C12.5197 25.9965 12.1531 25.8137 11.8878 25.5197C11.6226 25.2258 11.4784 24.8423 11.4843 24.4464V21.4892C11.4789 21.0936 11.6233 20.7106 11.8885 20.417C12.1537 20.1234 12.52 19.941 12.9141 19.9062C13.1236 19.8923 13.3337 19.9216 13.5313 19.9923C13.729 20.063 13.91 20.1736 14.0631 20.3172C14.2162 20.4608 14.3381 20.6344 14.4214 20.8271C14.5046 21.0198 14.5473 21.2276 14.5468 21.4375V24.5ZM22.2031 35.2187C22.2035 35.4286 22.1608 35.6364 22.0776 35.8291C21.9944 36.0219 21.8724 36.1954 21.7193 36.339C21.5662 36.4826 21.3852 36.5932 21.1876 36.6639C20.9899 36.7346 20.7798 36.7639 20.5704 36.75C20.1765 36.7157 19.8101 36.5336 19.5449 36.2404C19.2797 35.9471 19.1352 35.5643 19.1406 35.169V32.2079C19.1357 31.8127 19.2803 31.4302 19.5454 31.137C19.8105 30.8438 20.1766 30.6616 20.5704 30.6269C20.7798 30.613 20.9899 30.6423 21.1876 30.713C21.3852 30.7837 21.5662 30.8943 21.7193 31.0379C21.8724 31.1815 21.9944 31.355 22.0776 31.5477C22.1608 31.7405 22.2035 31.9482 22.2031 32.1581V35.2187ZM22.2031 24.5C22.2035 24.7099 22.1608 24.9177 22.0776 25.1104C21.9944 25.3031 21.8724 25.4767 21.7193 25.6203C21.5662 25.7639 21.3852 25.8744 21.1876 25.9451C20.9899 26.0158 20.7798 26.0451 20.5704 26.0312C20.1766 25.9965 19.8105 25.8143 19.5454 25.5212C19.2803 25.228 19.1357 24.8455 19.1406 24.4502V21.4892C19.1357 21.0939 19.2803 20.7114 19.5454 20.4182C19.8105 20.1251 20.1766 19.9429 20.5704 19.9081C20.7798 19.8942 20.9899 19.9235 21.1876 19.9942C21.3852 20.065 21.5662 20.1755 21.7193 20.3191C21.8724 20.4627 21.9944 20.6363 22.0776 20.829C22.1608 21.0217 22.2035 21.2295 22.2031 21.4394V24.5Z" fill="white"/>
</svg>
