<svg width="49" height="49" viewBox="0 0 49 49" fill="none" xmlns="http://www.w3.org/2000/svg">
<path d="M41.3438 7.65625H7.65625C6.84402 7.65625 6.06507 7.97891 5.49074 8.55324C4.91641 9.12757 4.59375 9.90652 4.59375 10.7188V38.2812C4.59375 39.0935 4.91641 39.8724 5.49074 40.4468C6.06507 41.0211 6.84402 41.3438 7.65625 41.3438H41.3438C42.156 41.3438 42.9349 41.0211 43.5093 40.4468C44.0836 39.8724 44.4062 39.0935 44.4062 38.2812V10.7188C44.4062 9.90652 44.0836 9.12757 43.5093 8.55324C42.9349 7.97891 42.156 7.65625 41.3438 7.65625ZM38.2812 36.75H10.7188C10.3126 36.75 9.92316 36.5887 9.63599 36.3015C9.34883 36.0143 9.1875 35.6249 9.1875 35.2188V13.7812C9.1875 13.3751 9.34883 12.9857 9.63599 12.6985C9.92316 12.4113 10.3126 12.25 10.7188 12.25C11.1249 12.25 11.5143 12.4113 11.8015 12.6985C12.0887 12.9857 12.25 13.3751 12.25 13.7812V28.4602L18.8229 21.8854C18.9651 21.743 19.134 21.6301 19.3199 21.553C19.5058 21.476 19.705 21.4363 19.9062 21.4363C20.1075 21.4363 20.3067 21.476 20.4926 21.553C20.6785 21.6301 20.8474 21.743 20.9896 21.8854L24.5 25.3977L33.0539 16.8438H27.5625C27.1564 16.8438 26.7669 16.6824 26.4797 16.3953C26.1926 16.1081 26.0312 15.7186 26.0312 15.3125C26.0312 14.9064 26.1926 14.5169 26.4797 14.2297C26.7669 13.9426 27.1564 13.7812 27.5625 13.7812H36.75C37.1561 13.7812 37.5456 13.9426 37.8328 14.2297C38.1199 14.5169 38.2812 14.9064 38.2812 15.3125V24.5C38.2812 24.9061 38.1199 25.2956 37.8328 25.5828C37.5456 25.8699 37.1561 26.0312 36.75 26.0312C36.3439 26.0312 35.9544 25.8699 35.6672 25.5828C35.3801 25.2956 35.2188 24.9061 35.2188 24.5V19.0086L25.5834 28.6459C25.4411 28.7882 25.2723 28.9012 25.0864 28.9782C24.9005 29.0553 24.7012 29.095 24.5 29.095C24.2988 29.095 24.0995 29.0553 23.9136 28.9782C23.7277 28.9012 23.5589 28.7882 23.4166 28.6459L19.9062 25.1336L12.25 32.7898V33.6875H38.2812C38.6874 33.6875 39.0768 33.8488 39.364 34.136C39.6512 34.4232 39.8125 34.8126 39.8125 35.2188C39.8125 35.6249 39.6512 36.0143 39.364 36.3015C39.0768 36.5887 38.6874 36.75 38.2812 36.75Z" fill="white"/>
</svg>
