<svg width="42" height="42" viewBox="0 0 42 42" fill="none" xmlns="http://www.w3.org/2000/svg">
<g clip-path="url(#clip0_1_252)">
<path d="M32.8125 24.9375L26.25 31.5L15.75 28.875L6.5625 22.3125" stroke="#FF5810" stroke-width="2" stroke-linecap="round" stroke-linejoin="round"/>
<path d="M11.9241 11.5877L21 9.1875L30.0759 11.5877" stroke="#FF5810" stroke-width="2" stroke-linecap="round" stroke-linejoin="round"/>
<path d="M5.63799 9.91247L1.45111 18.2895C1.29551 18.6006 1.2698 18.9608 1.37962 19.2909C1.48945 19.621 1.72583 19.894 2.03682 20.0499L6.56166 22.3123L11.9232 11.5876L7.40002 9.32677C7.24588 9.24947 7.07801 9.2033 6.90602 9.1909C6.73403 9.1785 6.56128 9.20011 6.39764 9.25451C6.234 9.3089 6.08269 9.395 5.95234 9.5079C5.822 9.6208 5.71518 9.75827 5.63799 9.91247Z" stroke="#FF5810" stroke-width="2" stroke-linecap="round" stroke-linejoin="round"/>
<path d="M35.4375 22.3126L39.9623 20.0501C40.2733 19.8942 40.5097 19.6213 40.6195 19.2912C40.7294 18.9611 40.7037 18.6009 40.5481 18.2897L36.3612 9.91272C36.284 9.75852 36.1772 9.62104 36.0468 9.50815C35.9165 9.39525 35.7652 9.30914 35.6015 9.25475C35.4379 9.20036 35.2651 9.17874 35.0931 9.19114C34.9212 9.20354 34.7533 9.24971 34.5991 9.32701L30.0759 11.5878L35.4375 22.3126Z" stroke="#FF5810" stroke-width="2" stroke-linecap="round" stroke-linejoin="round"/>
<path d="M30.1883 11.8125H23.6258L16.1347 19.0788C15.9954 19.218 15.8892 19.3868 15.824 19.5725C15.7588 19.7583 15.7363 19.9564 15.758 20.1521C15.7798 20.3478 15.8453 20.5361 15.9497 20.703C16.054 20.8699 16.1946 21.0113 16.3611 21.1165C19.2338 22.9523 23.1336 22.826 26.2508 19.6875L32.8133 24.9375L35.4383 22.3125" stroke="#FF5810" stroke-width="2" stroke-linecap="round" stroke-linejoin="round"/>
<path d="M20.3536 35.4375L13.5089 33.7263L9.1875 30.6387" stroke="#FF5810" stroke-width="2" stroke-linecap="round" stroke-linejoin="round"/>
</g>
<defs>
<clipPath id="clip0_1_252">
<rect width="42" height="42" fill="white"/>
</clipPath>
</defs>
</svg>
