<svg width="48" height="48" viewBox="0 0 48 48" fill="none" xmlns="http://www.w3.org/2000/svg">
<path d="M43.1869 26.4487C42.6287 26.0193 41.979 25.7243 41.2883 25.5867C40.5976 25.4492 39.8845 25.4727 39.2044 25.6556L31.3594 27.4593C31.5419 26.6883 31.5475 25.886 31.3759 25.1125C31.2042 24.339 30.8597 23.6144 30.3681 22.993C29.8766 22.3715 29.2508 21.8694 28.5376 21.5243C27.8244 21.1791 27.0423 20.9999 26.25 21H16.8638C16.0755 20.998 15.2947 21.1522 14.5664 21.4538C13.8381 21.7553 13.1768 22.1982 12.6206 22.7568L8.37937 27H3C2.20435 27 1.44129 27.316 0.87868 27.8786C0.316071 28.4412 0 29.2043 0 30L0 37.5C0 38.2956 0.316071 39.0587 0.87868 39.6213C1.44129 40.1839 2.20435 40.5 3 40.5H22.5C22.6226 40.5 22.7448 40.4849 22.8638 40.455L34.8638 37.455C34.9408 37.4365 35.016 37.4114 35.0887 37.38L42.375 34.2787L42.4575 34.2412C43.1579 33.8912 43.7578 33.3686 44.2004 32.7228C44.6431 32.0769 44.914 31.3289 44.9878 30.5494C45.0615 29.7698 44.9355 28.9844 44.6218 28.2669C44.308 27.5495 43.8168 26.9238 43.1944 26.4487H43.1869ZM41.1431 31.5393L34.0181 34.5731L22.3125 37.5H10.5V29.1206L14.7431 24.8793C15.0207 24.5995 15.3511 24.3777 15.7152 24.2268C16.0792 24.0758 16.4696 23.9987 16.8638 24H26.25C26.8467 24 27.419 24.237 27.841 24.659C28.2629 25.0809 28.5 25.6532 28.5 26.25C28.5 26.8467 28.2629 27.419 27.841 27.8409C27.419 28.2629 26.8467 28.5 26.25 28.5H21C20.6022 28.5 20.2206 28.658 19.9393 28.9393C19.658 29.2206 19.5 29.6021 19.5 30C19.5 30.3978 19.658 30.7793 19.9393 31.0606C20.2206 31.3419 20.6022 31.5 21 31.5H27C27.1129 31.4996 27.2254 31.4871 27.3356 31.4625L39.8981 28.5731L39.9563 28.5581C40.3397 28.4516 40.7491 28.4907 41.1054 28.6679C41.4618 28.8451 41.7401 29.1478 41.8867 29.5178C42.0333 29.8878 42.0379 30.299 41.8996 30.6722C41.7613 31.0454 41.4898 31.3542 41.1375 31.5393H41.1431ZM28.9387 11.5612C28.7993 11.4219 28.6886 11.2565 28.6132 11.0744C28.5377 10.8923 28.4988 10.6971 28.4988 10.5C28.4988 10.3028 28.5377 10.1076 28.6132 9.92555C28.6886 9.74345 28.7993 9.57802 28.9387 9.43871L34.9388 3.43871C35.0781 3.29924 35.2435 3.18861 35.4256 3.11312C35.6077 3.03763 35.8029 2.99878 36 2.99878C36.1971 2.99878 36.3923 3.03763 36.5744 3.11312C36.7565 3.18861 36.9219 3.29924 37.0612 3.43871L43.0612 9.43871C43.2006 9.57807 43.3112 9.74353 43.3866 9.92561C43.462 10.1077 43.5008 10.3029 43.5008 10.5C43.5008 10.6971 43.462 10.8922 43.3866 11.0743C43.3112 11.2564 43.2006 11.4218 43.0612 11.5612C42.9219 11.7006 42.7564 11.8111 42.5743 11.8865C42.3923 11.962 42.1971 12.0008 42 12.0008C41.8029 12.0008 41.6077 11.962 41.4257 11.8865C41.2436 11.8111 41.0781 11.7006 40.9388 11.5612L37.5 8.12058V19.5C37.5 19.8978 37.342 20.2793 37.0607 20.5606C36.7794 20.8419 36.3978 21 36 21C35.6022 21 35.2206 20.8419 34.9393 20.5606C34.658 20.2793 34.5 19.8978 34.5 19.5V8.12058L31.0613 11.5612C30.9219 11.7007 30.7565 11.8113 30.5744 11.8868C30.3923 11.9623 30.1971 12.0011 30 12.0011C29.8029 12.0011 29.6077 11.9623 29.4256 11.8868C29.2435 11.8113 29.0781 11.7007 28.9387 11.5612Z" fill="white"/>
</svg>
