<svg width="48" height="48" viewBox="0 0 48 48" fill="none" xmlns="http://www.w3.org/2000/svg">
<path d="M45.795 11.2499C45.5791 11.1152 45.3324 11.0376 45.0781 11.0244C44.8239 11.0113 44.5706 11.0631 44.3419 11.1749C36.2925 15.1124 30.5438 13.2674 24.4669 11.3212C18.075 9.28682 11.475 7.17744 2.34187 11.6362C2.08964 11.7593 1.87703 11.9508 1.7282 12.1888C1.57937 12.4268 1.50031 12.7017 1.5 12.9824V35.4693C1.49996 35.7238 1.56468 35.9741 1.68807 36.1967C1.81146 36.4193 1.98945 36.6069 2.2053 36.7417C2.42115 36.8765 2.66776 36.9542 2.92192 36.9675C3.17608 36.9807 3.42943 36.9291 3.65812 36.8174C11.7075 32.8799 17.4562 34.7249 23.5425 36.6712C27.15 37.8243 30.825 38.9999 34.98 38.9999C38.1844 38.9999 41.6794 38.3024 45.6506 36.3637C45.9029 36.2405 46.1155 36.0491 46.2643 35.8111C46.4131 35.5731 46.4922 35.2981 46.4925 35.0174V12.5306C46.4948 12.2754 46.4319 12.0239 46.3098 11.7998C46.1878 11.5757 46.0106 11.3864 45.795 11.2499ZM9 28.4999C9 28.8978 8.84196 29.2793 8.56066 29.5606C8.27936 29.8419 7.89782 29.9999 7.5 29.9999C7.10218 29.9999 6.72064 29.8419 6.43934 29.5606C6.15804 29.2793 6 28.8978 6 28.4999V16.4999C6 16.1021 6.15804 15.7206 6.43934 15.4393C6.72064 15.158 7.10218 14.9999 7.5 14.9999C7.89782 14.9999 8.27936 15.158 8.56066 15.4393C8.84196 15.7206 9 16.1021 9 16.4999V28.4999ZM24 29.9999C22.8133 29.9999 21.6533 29.648 20.6666 28.9888C19.6799 28.3295 18.9108 27.3924 18.4567 26.296C18.0026 25.1997 17.8838 23.9933 18.1153 22.8294C18.3468 21.6655 18.9182 20.5964 19.7574 19.7573C20.5965 18.9182 21.6656 18.3467 22.8295 18.1152C23.9933 17.8837 25.1997 18.0025 26.2961 18.4567C27.3925 18.9108 28.3295 19.6798 28.9888 20.6665C29.6481 21.6532 30 22.8133 30 23.9999C30 25.5912 29.3679 27.1174 28.2426 28.2426C27.1174 29.3678 25.5913 29.9999 24 29.9999ZM42 31.4999C42 31.8978 41.842 32.2793 41.5607 32.5606C41.2794 32.8419 40.8978 32.9999 40.5 32.9999C40.1022 32.9999 39.7206 32.8419 39.4393 32.5606C39.158 32.2793 39 31.8978 39 31.4999V19.4999C39 19.1021 39.158 18.7206 39.4393 18.4393C39.7206 18.158 40.1022 17.9999 40.5 17.9999C40.8978 17.9999 41.2794 18.158 41.5607 18.4393C41.842 18.7206 42 19.1021 42 19.4999V31.4999Z" fill="white"/>
</svg>
