<svg width="50" height="50" viewBox="0 0 50 50" fill="none" xmlns="http://www.w3.org/2000/svg">
<path d="M45.7875 36.3688L28.8782 7.00336C28.4557 6.28392 27.8524 5.68739 27.1283 5.27291C26.4042 4.85843 25.5844 4.64038 24.75 4.64038C23.9156 4.64038 23.0958 4.85843 22.3717 5.27291C21.6475 5.68739 21.0443 6.28392 20.6218 7.00336L3.7125 36.3688C3.30593 37.0647 3.09167 37.8562 3.09167 38.6621C3.09167 39.468 3.30593 40.2595 3.7125 40.9553C4.12963 41.6791 4.73183 42.2789 5.4573 42.6931C6.18277 43.1073 7.00538 43.3211 7.84072 43.3124H41.6593C42.494 43.3204 43.3158 43.1063 44.0405 42.6921C44.7652 42.278 45.3668 41.6785 45.7836 40.9553C46.1908 40.2598 46.4057 39.4685 46.4064 38.6626C46.4071 37.8567 46.1935 37.0651 45.7875 36.3688ZM23.2031 20.1093C23.2031 19.699 23.3661 19.3055 23.6562 19.0155C23.9463 18.7254 24.3397 18.5624 24.75 18.5624C25.1603 18.5624 25.5537 18.7254 25.8438 19.0155C26.1339 19.3055 26.2969 19.699 26.2969 20.1093V27.8436C26.2969 28.2539 26.1339 28.6473 25.8438 28.9374C25.5537 29.2275 25.1603 29.3905 24.75 29.3905C24.3397 29.3905 23.9463 29.2275 23.6562 28.9374C23.3661 28.6473 23.2031 28.2539 23.2031 27.8436V20.1093ZM24.75 37.1249C24.2911 37.1249 23.8425 36.9888 23.4609 36.7338C23.0793 36.4789 22.7819 36.1165 22.6063 35.6925C22.4307 35.2685 22.3847 34.802 22.4743 34.3519C22.5638 33.9018 22.7848 33.4884 23.1093 33.1639C23.4338 32.8394 23.8472 32.6184 24.2973 32.5288C24.7474 32.4393 25.214 32.4853 25.6379 32.6609C26.0619 32.8365 26.4243 33.1339 26.6793 33.5155C26.9342 33.897 27.0703 34.3457 27.0703 34.8046C27.0703 35.42 26.8258 36.0101 26.3907 36.4453C25.9556 36.8804 25.3654 37.1249 24.75 37.1249Z" fill="white"/>
</svg>
