<svg width="42" height="42" viewBox="0 0 42 42" fill="none" xmlns="http://www.w3.org/2000/svg">
<g clip-path="url(#clip0_1_861)">
<path d="M21 27.5625V36.75" stroke="#FF5810" stroke-width="2" stroke-linecap="round" stroke-linejoin="round"/>
<path d="M7.35817 13.125C5.62465 16.1275 4.93029 19.6182 5.38278 23.0556C5.83527 26.4929 7.40931 29.685 9.8608 32.1366C12.3123 34.5882 15.5042 36.1625 18.9416 36.6152C22.3789 37.0679 25.8696 36.3737 28.8722 34.6404C31.8749 32.907 34.2217 30.2314 35.5487 27.0284C36.8757 23.8253 37.1088 20.274 36.2118 16.925C35.3147 13.576 33.3377 10.6166 30.5874 8.5057C27.837 6.39481 24.467 5.25042 21 5.25V14.4375C22.4445 14.4378 23.8486 14.9148 24.9945 15.7944C26.1404 16.674 26.964 17.9072 27.3377 19.3026C27.7113 20.698 27.6141 22.1777 27.0611 23.5122C26.5081 24.8467 25.5302 25.9615 24.2791 26.6837C23.028 27.4058 21.5736 27.695 20.1414 27.5063C18.7092 27.3176 17.3792 26.6616 16.3578 25.6401C15.3364 24.6186 14.6806 23.2886 14.4921 21.8564C14.3036 20.4242 14.5929 18.9698 15.3152 17.7188L7.35817 13.125Z" stroke="#FF5810" stroke-width="2" stroke-linecap="round" stroke-linejoin="round"/>
<path d="M14.659 22.6997L5.7832 25.077" stroke="#FF5810" stroke-width="2" stroke-linecap="round" stroke-linejoin="round"/>
</g>
<defs>
<clipPath id="clip0_1_861">
<rect width="42" height="42" fill="white"/>
</clipPath>
</defs>
</svg>
