<svg width="42" height="42" viewBox="0 0 42 42" fill="none" xmlns="http://www.w3.org/2000/svg">
<g clip-path="url(#clip0_1_849)">
<path d="M32.8125 9.1875L9.1875 32.8125" stroke="#FF5810" stroke-width="2" stroke-linecap="round" stroke-linejoin="round"/>
<path d="M12.4688 17.0625C15.0058 17.0625 17.0625 15.0058 17.0625 12.4688C17.0625 9.93169 15.0058 7.875 12.4688 7.875C9.93169 7.875 7.875 9.93169 7.875 12.4688C7.875 15.0058 9.93169 17.0625 12.4688 17.0625Z" stroke="#FF5810" stroke-width="2" stroke-linecap="round" stroke-linejoin="round"/>
<path d="M29.5312 34.125C32.0683 34.125 34.125 32.0683 34.125 29.5312C34.125 26.9942 32.0683 24.9375 29.5312 24.9375C26.9942 24.9375 24.9375 26.9942 24.9375 29.5312C24.9375 32.0683 26.9942 34.125 29.5312 34.125Z" stroke="#FF5810" stroke-width="2" stroke-linecap="round" stroke-linejoin="round"/>
</g>
<defs>
<clipPath id="clip0_1_849">
<rect width="42" height="42" fill="white"/>
</clipPath>
</defs>
</svg>
