<svg width="42" height="42" viewBox="0 0 42 42" fill="none" xmlns="http://www.w3.org/2000/svg">
<g clip-path="url(#clip0_1_833)">
<path d="M12.4688 35.4375C15.0058 35.4375 17.0625 33.3808 17.0625 30.8438C17.0625 28.3067 15.0058 26.25 12.4688 26.25C9.93169 26.25 7.875 28.3067 7.875 30.8438C7.875 33.3808 9.93169 35.4375 12.4688 35.4375Z" stroke="#FF5810" stroke-width="2" stroke-linecap="round" stroke-linejoin="round"/>
<path d="M7.875 11.8125L14.4375 18.375" stroke="#FF5810" stroke-width="2" stroke-linecap="round" stroke-linejoin="round"/>
<path d="M14.4375 11.8125L7.875 18.375" stroke="#FF5810" stroke-width="2" stroke-linecap="round" stroke-linejoin="round"/>
<path d="M30.1875 27.5625L36.75 34.125" stroke="#FF5810" stroke-width="2" stroke-linecap="round" stroke-linejoin="round"/>
<path d="M36.75 27.5625L30.1875 34.125" stroke="#FF5810" stroke-width="2" stroke-linecap="round" stroke-linejoin="round"/>
<path d="M23.625 13.125V6.5625H30.1875" stroke="#FF5810" stroke-width="2" stroke-linecap="round" stroke-linejoin="round"/>
<path d="M23.625 6.5625L26.25 9.1875C32.8125 15.75 27.5625 23.625 22.3125 24.9375" stroke="#FF5810" stroke-width="2" stroke-linecap="round" stroke-linejoin="round"/>
</g>
<defs>
<clipPath id="clip0_1_833">
<rect width="42" height="42" fill="white"/>
</clipPath>
</defs>
</svg>
