<svg preserveAspectRatio="none" width="100%" height="100%" overflow="visible" style="display: block;" viewBox="0 0 42 42" fill="none" xmlns="http://www.w3.org/2000/svg">
<g id="TreeStructure" clip-path="url(#clip0_2001_186)">
<g id="Vector">
</g>
<path id="Vector_2" d="M9.1875 17.0625H3.9375C3.21263 17.0625 2.625 17.6501 2.625 18.375V23.625C2.625 24.3499 3.21263 24.9375 3.9375 24.9375H9.1875C9.91237 24.9375 10.5 24.3499 10.5 23.625V18.375C10.5 17.6501 9.91237 17.0625 9.1875 17.0625Z" stroke="var(--stroke-0, #FF5810)" stroke-width="2" stroke-linecap="round" stroke-linejoin="round"/>
<path id="Vector_3" d="M34.125 6.5625H26.25C25.5251 6.5625 24.9375 7.15013 24.9375 7.875V15.75C24.9375 16.4749 25.5251 17.0625 26.25 17.0625H34.125C34.8499 17.0625 35.4375 16.4749 35.4375 15.75V7.875C35.4375 7.15013 34.8499 6.5625 34.125 6.5625Z" stroke="var(--stroke-0, #FF5810)" stroke-width="2" stroke-linecap="round" stroke-linejoin="round"/>
<path id="Vector_4" d="M34.125 24.9375H26.25C25.5251 24.9375 24.9375 25.5251 24.9375 26.25V34.125C24.9375 34.8499 25.5251 35.4375 26.25 35.4375H34.125C34.8499 35.4375 35.4375 34.8499 35.4375 34.125V26.25C35.4375 25.5251 34.8499 24.9375 34.125 24.9375Z" stroke="var(--stroke-0, #FF5810)" stroke-width="2" stroke-linecap="round" stroke-linejoin="round"/>
<path id="Vector_5" d="M10.5 21H18.375" stroke="var(--stroke-0, #FF5810)" stroke-width="2" stroke-linecap="round" stroke-linejoin="round"/>
<path id="Vector_6" d="M24.9375 30.1875H21C20.3038 30.1875 19.6361 29.9109 19.1438 29.4187C18.6516 28.9264 18.375 28.2587 18.375 27.5625V14.4375C18.375 13.7413 18.6516 13.0736 19.1438 12.5813C19.6361 12.0891 20.3038 11.8125 21 11.8125H24.9375" stroke="var(--stroke-0, #FF5810)" stroke-width="2" stroke-linecap="round" stroke-linejoin="round"/>
</g>
<defs>
<clipPath id="clip0_2001_186">
<rect width="42" height="42" fill="white"/>
</clipPath>
</defs>
</svg>
