<svg width="42" height="42" viewBox="0 0 42 42" fill="none" xmlns="http://www.w3.org/2000/svg">
<g clip-path="url(#clip0_1_1390)">
<path d="M21 26.25C23.8995 26.25 26.25 23.8995 26.25 21C26.25 18.1005 23.8995 15.75 21 15.75C18.1005 15.75 15.75 18.1005 15.75 21C15.75 23.8995 18.1005 26.25 21 26.25Z" stroke="#FF5810" stroke-width="2" stroke-linecap="round" stroke-linejoin="round"/>
<path d="M39.375 10.5H2.625V31.5H39.375V10.5Z" stroke="#FF5810" stroke-width="2" stroke-linecap="round" stroke-linejoin="round"/>
<path d="M39.375 17.0625C37.7355 16.7846 36.223 16.0037 35.0472 14.8278C33.8714 13.652 33.0904 12.1395 32.8125 10.5" stroke="#FF5810" stroke-width="2" stroke-linecap="round" stroke-linejoin="round"/>
<path d="M32.8125 31.5C33.0904 29.8605 33.8714 28.348 35.0472 27.1722C36.223 25.9964 37.7355 25.2154 39.375 24.9375" stroke="#FF5810" stroke-width="2" stroke-linecap="round" stroke-linejoin="round"/>
<path d="M2.625 24.9375C4.2645 25.2154 5.77698 25.9964 6.95281 27.1722C8.12865 28.348 8.90962 29.8605 9.1875 31.5" stroke="#FF5810" stroke-width="2" stroke-linecap="round" stroke-linejoin="round"/>
<path d="M9.1875 10.5C8.90962 12.1395 8.12865 13.652 6.95281 14.8278C5.77698 16.0037 4.2645 16.7846 2.625 17.0625" stroke="#FF5810" stroke-width="2" stroke-linecap="round" stroke-linejoin="round"/>
</g>
<defs>
<clipPath id="clip0_1_1390">
<rect width="42" height="42" fill="white"/>
</clipPath>
</defs>
</svg>
